<svg xmlns="http://www.w3.org/2000/svg" width="400" height="400" viewBox="0 0 400 400">
  <defs>
    <radialGradient id="bg3" cx="60%" cy="30%" r="95%">
      <stop offset="0%" stop-color="#4a0a1f"/>
      <stop offset="55%" stop-color="#26050f"/>
      <stop offset="100%" stop-color="#0e0206"/>
    </radialGradient>
    <linearGradient id="g3" x1="0" y1="0" x2="1" y2="1">
      <stop offset="0%" stop-color="#f0d080"/>
      <stop offset="100%" stop-color="#c9a84c"/>
    </linearGradient>
  </defs>
  <rect width="400" height="400" fill="url(#bg3)"/>

  <!-- infinito -->
  <path d="M 96 196 C 96 152 158 152 200 196 C 242 240 304 240 304 196 C 304 152 242 152 200 196 C 158 240 96 240 96 196 Z"
        fill="none" stroke="url(#g3)" stroke-width="5" stroke-linecap="round"/>

  <!-- dois coraçõezinhos nos laços -->
  <path d="M148 184 C 134 173 127 164 127 156 A 11 11 0 0 1 148 152 A 11 11 0 0 1 169 156 C 169 164 162 173 148 184 Z"
        fill="#c9415a" opacity="0.85"/>
  <path d="M252 184 C 238 173 231 164 231 156 A 11 11 0 0 1 252 152 A 11 11 0 0 1 273 156 C 273 164 266 173 252 184 Z"
        fill="#c9415a" opacity="0.85"/>

  <!-- estrelas -->
  <path d="M88 84 l4 10 10 4 -10 4 -4 10 -4 -10 -10 -4 10 -4 Z" fill="#e8c96a" opacity="0.8"/>
  <path d="M312 76 l3 8 8 3 -8 3 -3 8 -3 -8 -8 -3 8 -3 Z" fill="#e8c96a" opacity="0.65"/>
  <path d="M324 296 l3 8 8 3 -8 3 -3 8 -3 -8 -8 -3 8 -3 Z" fill="#e8c96a" opacity="0.6"/>
  <circle cx="66" cy="290" r="2.5" fill="#e8c96a" opacity="0.5"/>
  <circle cx="206" cy="64" r="2" fill="#c9415a" opacity="0.6"/>

  <text x="200" y="352" text-anchor="middle" font-family="Georgia, serif" font-style="italic"
        font-size="22" fill="#f5f0ea" opacity="0.9">para sempre</text>
</svg>
