<svg xmlns="http://www.w3.org/2000/svg" width="400" height="400" viewBox="0 0 400 400">
  <defs>
    <radialGradient id="bg2" cx="50%" cy="38%" r="90%">
      <stop offset="0%" stop-color="#6b0d29"/>
      <stop offset="55%" stop-color="#2e0613"/>
      <stop offset="100%" stop-color="#120308"/>
    </radialGradient>
    <linearGradient id="g2" x1="0" y1="0" x2="1" y2="1">
      <stop offset="0%" stop-color="#f0d080"/>
      <stop offset="100%" stop-color="#9a7832"/>
    </linearGradient>
  </defs>
  <rect width="400" height="400" fill="url(#bg2)"/>

  <!-- coração com asas de dragoa -->
  <path d="M148 158 C 118 122 78 114 46 134 C 72 140 78 154 64 168 C 88 168 98 178 92 194 C 116 192 132 186 150 198 Z"
        fill="rgba(201,65,90,0.18)" stroke="url(#g2)" stroke-width="2.5" stroke-linejoin="round"/>
  <path d="M252 158 C 282 122 322 114 354 134 C 328 140 322 154 336 168 C 312 168 302 178 308 194 C 284 192 268 186 250 198 Z"
        fill="rgba(201,65,90,0.18)" stroke="url(#g2)" stroke-width="2.5" stroke-linejoin="round"/>
  <path d="M200 268 C 140 222 110 184 110 148 A 45 45 0 0 1 200 132 A 45 45 0 0 1 290 148 C 290 184 260 222 200 268 Z"
        fill="rgba(201,65,90,0.32)" stroke="#c9415a" stroke-width="3"/>

  <!-- chaminhas -->
  <path d="M200 96 C 194 84 198 74 206 68 C 202 78 210 80 212 88 C 214 94 208 100 200 96 Z" fill="#e8c96a" opacity="0.85"/>
  <path d="M70 304 l4 10 10 4 -10 4 -4 10 -4 -10 -10 -4 10 -4 Z" fill="#e8c96a" opacity="0.7"/>
  <path d="M326 300 l3 8 8 3 -8 3 -3 8 -3 -8 -8 -3 8 -3 Z" fill="#e8c96a" opacity="0.6"/>

  <text x="200" y="352" text-anchor="middle" font-family="Georgia, serif" font-style="italic"
        font-size="22" fill="#f5f0ea" opacity="0.9">minha dragoa</text>
</svg>
